<?xml version="1.0" standalone="no"?>
<!DOCTYPE svg PUBLIC "-//W3C//DTD SVG 20010904//EN"
 "http://www.w3.org/TR/2001/REC-SVG-20010904/DTD/svg10.dtd">
<svg version="1.0" xmlns="http://www.w3.org/2000/svg"
 width="1024.000000pt" height="1024.000000pt" viewBox="0 0 1024.000000 1024.000000"
 preserveAspectRatio="xMidYMid meet">
<metadata>
Created by potrace 1.11, written by Peter Selinger 2001-2013
</metadata>
<g transform="translate(0.000000,1024.000000) scale(0.100000,-0.100000)"
fill="#000000" stroke="none">
<path d="M2710 10226 c-44 -14 -124 -92 -135 -131 -4 -17 -11 -183 -14 -370
l-6 -340 -930 -5 -930 -5 -90 -31 c-318 -109 -530 -352 -588 -674 -17 -94 -17
-7006 0 -7100 58 -322 270 -565 588 -674 l90 -31 2689 -3 2689 -2 144 -145
c247 -250 543 -446 836 -554 31 -11 81 -30 110 -40 72 -27 285 -76 387 -90 47
-6 117 -16 157 -21 92 -13 284 -13 376 0 40 5 110 15 157 21 109 15 367 76
409 98 9 5 45 19 81 31 233 81 531 265 743 459 267 245 500 587 607 891 12 36
26 72 31 81 22 42 83 300 98 409 6 47 16 117 21 157 20 144 11 329 -30 593
-15 97 -64 284 -100 380 -18 47 -35 94 -38 105 -11 37 -112 236 -165 324 -94
157 -222 316 -372 464 l-145 144 0 2219 c0 1371 -4 2241 -10 2278 -44 268
-203 489 -446 620 -53 29 -100 47 -204 79 -23 7 -283 13 -750 16 l-715 6 -5
355 -5 355 -27 38 c-28 41 -87 87 -112 87 -8 0 -18 5 -21 10 -3 6 -24 10 -45
10 -21 0 -42 -4 -45 -10 -3 -5 -13 -10 -21 -10 -25 0 -84 -46 -112 -87 l-27
-38 -5 -355 -5 -355 -1909 -3 c-1371 -1 -1913 1 -1922 9 -10 8 -14 86 -16 359
l-3 348 -30 43 c-20 29 -50 53 -85 71 -58 29 -92 32 -150 14z m-152 -1351 c2
-44 0 -95 -3 -113 -5 -28 -8 -31 -26 -22 -13 8 -293 10 -887 7 -939 -3 -898
-1 -997 -57 -66 -38 -135 -111 -166 -175 -16 -33 -29 -65 -29 -72 0 -6 -5 -15
-12 -19 -18 -12 -1 192 22 256 36 99 106 177 204 227 101 51 106 52 1031 50
l860 -2 3 -80z m4260 -20 l-3 -105 -1910 0 -1910 0 -3 105 -3 105 1916 0 1916
0 -3 -105z m1793 91 c163 -35 275 -136 325 -295 19 -58 30 -242 17 -266 -8
-13 -11 -6 -16 37 -12 125 -119 241 -279 305 -39 15 -106 17 -718 20 l-675 3
-3 105 -3 105 643 0 c514 0 656 -3 709 -14z m-6061 -386 c0 -5 -4 -10 -10 -10
-5 0 -10 5 -10 10 0 6 5 10 10 10 6 0 10 -4 10 -10z m4260 0 c0 -5 -4 -10 -10
-10 -5 0 -10 5 -10 10 0 6 5 10 10 10 6 0 10 -4 10 -10z m2140 -1280 c0 -5 -4
-10 -10 -10 -5 0 -10 5 -10 10 0 6 5 10 10 10 6 0 10 -4 10 -10z m10 -1645 c0
-817 -3 -1195 -10 -1195 -6 0 -21 6 -33 14 -27 17 -116 55 -223 95 -117 44
-249 78 -409 107 -124 23 -167 26 -385 26 -208 1 -264 -3 -373 -21 -397 -69
-695 -194 -1032 -434 -118 -84 -378 -338 -454 -444 -29 -40 -57 -73 -62 -73
-5 0 -9 327 -9 818 0 449 -4 834 -9 855 -13 57 -50 103 -105 133 l-49 27 -261
-2 c-240 -2 -264 -3 -304 -22 -86 -42 -135 -142 -112 -229 34 -126 108 -168
297 -169 l123 -1 4 -1212 c3 -667 5 -1231 6 -1253 1 -22 1 -157 0 -300 -2
-240 0 -271 24 -400 29 -161 72 -322 110 -414 14 -36 26 -68 26 -73 0 -4 18
-45 40 -92 22 -46 40 -87 40 -90 0 -3 -1129 -6 -2508 -6 -2491 0 -2509 0
-2568 20 -162 56 -272 190 -294 361 -11 84 -14 5152 -3 5162 3 4 1925 7 4270
7 l4263 0 0 -1195z m-790 -1394 c241 -36 507 -131 708 -253 395 -240 696 -618
831 -1043 46 -146 49 -154 60 -222 6 -35 16 -89 21 -122 14 -78 13 -417 -1
-511 -63 -427 -245 -793 -538 -1088 -306 -307 -665 -486 -1102 -551 -97 -15
-431 -15 -512 -1 -205 36 -184 31 -327 75 -429 133 -812 435 -1055 834 -115
188 -179 355 -241 626 -15 68 -34 267 -34 365 0 223 51 491 131 692 262 657
830 1103 1534 1203 105 15 413 13 525 -4z"/>
<path d="M3675 5526 c-263 -58 -481 -224 -591 -451 -66 -138 -85 -209 -87
-339 -2 -110 -2 -111 30 -158 84 -120 261 -122 342 -5 21 31 31 64 41 127 21
144 43 198 115 278 165 183 454 190 616 15 86 -93 121 -177 123 -293 3 -176
-101 -335 -261 -400 -26 -11 -92 -26 -146 -34 -114 -16 -160 -41 -197 -109
-19 -33 -24 -56 -24 -108 1 -57 5 -72 32 -112 40 -57 104 -90 187 -95 108 -7
198 -46 274 -120 94 -91 133 -179 135 -302 3 -176 -90 -320 -259 -401 -44 -21
-64 -24 -165 -23 -97 0 -123 3 -164 22 -157 72 -241 194 -267 388 -13 100 -34
140 -96 182 -27 18 -55 27 -95 30 -90 7 -157 -28 -199 -101 -22 -38 -24 -52
-22 -150 5 -198 86 -388 236 -546 170 -179 457 -283 695 -251 362 49 618 264
729 613 23 74 26 98 26 237 0 154 0 156 -37 255 -46 126 -102 221 -182 309
l-64 70 53 55 c94 99 152 199 203 351 26 79 28 96 27 230 0 124 -4 158 -25
230 -83 283 -282 487 -568 583 -73 25 -104 30 -220 33 -88 2 -156 -1 -195 -10z"/>
<path d="M8870 3183 c-21 -9 -317 -297 -715 -695 -374 -373 -685 -678 -690
-678 -6 0 -116 106 -245 236 -129 130 -255 250 -280 267 -40 29 -52 32 -115
32 -60 0 -76 -4 -112 -29 -93 -62 -128 -178 -83 -269 26 -52 674 -706 737
-744 51 -31 137 -31 196 -2 45 23 1499 1465 1562 1549 64 86 67 177 9 261 -53
78 -179 112 -264 72z"/>
</g>
</svg>
